
<svg xmlns="http://www.w3.org/2000/svg" fill="#0F3460" viewBox="0 0 24 24">
  <path d="M9.58 16.06c-.57.58-1.3.89-2.12.89-1.55 0-2.88-1.32-2.88-2.88 0-.81.32-1.54.9-2.12l7.3-7.31c.32-.32.76-.32 1.08 0 .32.32.32.76 0 1.08l-7.29 7.3c-.3.3-.3.77 0 1.06.14.14.34.22.54.22.2 0 .4-.08.54-.23l7.3-7.3c.97-.96 1.5-2.25 1.5-3.61s-.53-2.65-1.5-3.61c-.97-.97-2.25-1.5-3.61-1.5-1.36 0-2.65.53-3.61 1.5l-7.3 7.31A6.115 6.115 0 0 0 .04 11c0 1.62.63 3.15 1.77 4.29 1.1 1.09 2.61 1.73 4.2 1.71 1.7-.03 3.27-.69 4.43-1.85l7.3-7.31a4.2 4.2 0 0 0 1.23-2.99c0-1.14-.44-2.2-1.23-3 .78-.8 1.21-1.77 1.25-2.87.04-1.1-.35-2.15-1.11-3.01l-.06-.05-1.07 1.07.06.05c.52.52.79 1.21.76 1.94-.03.73-.35 1.39-.9 1.94-.55.55-1.22.86-1.94.89-.73.03-1.42-.24-1.94-.76a3.05 3.05 0 0 1-.91-2.18c0-.83.32-1.6.91-2.18A3.943 3.943 0 0 1 11.66 2l1.06-1.06c-.15-.15-.3-.3-.46-.44a5.867 5.867 0 0 0-4.2-1.45c-1.68.08-3.28.87-4.47 2.24A5.96 5.96 0 0 0 2.09 5.7c-.13 1.79.3 3.52 1.23 4.96.05-.98.44-1.95 1.17-2.68l7.3-7.31c.64-.63 1.48-.98 2.38-.98.91 0 1.74.35 2.36.96a3.36 3.36 0 0 1 .98 2.38c0 .9-.35 1.74-.98 2.37l-7.3 7.31a2.32 2.32 0 0 1-1.65.67c-.62 0-1.2-.24-1.65-.68a2.34 2.34 0 0 1 0-3.31l7.29-7.3c.15-.15.15-.4 0-.55-.15-.15-.4-.15-.55 0L5.4 9.59c-.85.86-1.35 2-1.35 3.19 0 1.23.49 2.37 1.38 3.24.85.85 2 1.32 3.18 1.32 1.19 0 2.34-.48 3.18-1.32l7.3-7.31c.87-.87 1.34-2.02 1.34-3.25 0-1.23-.47-2.39-1.34-3.25-.87-.87-2.03-1.34-3.25-1.34-1.23 0-2.39.47-3.26 1.34l-3.03 3.03a.756.756 0 0 0 0 1.07c.29.29.77.29 1.06 0l3.03-3.03c.57-.58 1.34-.9 2.15-.9.82 0 1.57.31 2.15.88.57.57.88 1.34.88 2.15 0 .81-.31 1.58-.88 2.15l-7.29 7.3z"/>
</svg>
